<svg xmlns="http://www.w3.org/2000/svg" viewBox="0 0 512 512" style="height: 512px; width: 512px;"><defs><linearGradient x1="0" x2="1" y1="0" y2="1" id="delapouite-video-conference-gradient-0"><stop offset="0%" stop-color="#10d182" stop-opacity="1"></stop><stop offset="100%" stop-color="#0c0c0c" stop-opacity="1"></stop></linearGradient></defs><circle cx="256" cy="256" r="256" fill="url(#delapouite-video-conference-gradient-0)"></circle><g class="" transform="translate(0,0)" style=""><path d="M256 23c-22.5 0-41 18.46-41 41s18.5 41 41 41 41-18.46 41-41-18.5-41-41-41zm0 82H41v270h430V105H256zm0-64c12.8 0 23 10.19 23 23s-10.2 23-23 23-23-10.19-23-23 10.2-23 23-23zM64 128h384v224H322.9c-.3-37.8-3.8-100.3-47.9-114a44.51 50 0 0 0 25.6-45.2 44.51 50 0 0 0-44.5-50 44.51 50 0 0 0-44.5 50 44.51 50 0 0 0 25.6 45.2c-44.1 13.7-47.6 76.2-47.9 114H64V128zm133.9 263.5l-12.4 62h138l-12.4-62H197.9zM160 471v18h192v-18H160z" fill="#fff" fill-opacity="1" transform="translate(51.2, 51.2) scale(0.8, 0.8) rotate(0, 256, 256) skewX(0) skewY(0)"></path></g></svg>