<svg xmlns="http://www.w3.org/2000/svg" viewBox="0 0 512 512" style="height: 512px; width: 512px;"><defs><linearGradient x1="0" x2="1" y1="0" y2="1" id="sbed-battery-pack-gradient-0"><stop offset="0%" stop-color="#10d182" stop-opacity="1"></stop><stop offset="100%" stop-color="#0c0c0c" stop-opacity="1"></stop></linearGradient></defs><circle cx="256" cy="256" r="256" fill="url(#sbed-battery-pack-gradient-0)"></circle><g class="" transform="translate(0,0)" style=""><path d="M230.218 16c-14.245 0-51.563 11.946-51.563 26.718v26.718h-51.093C99.072 69.436 76 93.326 76 122.874V442.56C76 472.11 99.072 496 127.563 496h256.875c28.49-.002 51.562-23.892 51.562-53.44V122.874c0-29.547-23.072-53.437-51.563-53.437h-51.093V42.718c0-14.774-37.317-26.718-51.562-26.718H230.22zM256 122.875V256h102.657L256 442.563V309.438H153.343L256 122.875z" fill="#fff" fill-opacity="1" transform="translate(51.2, 51.2) scale(0.8, 0.8) rotate(0, 256, 256) skewX(0) skewY(0)"></path></g></svg>